<svg width="20" height="20" viewBox="0 0 20 20" fill="none" xmlns="http://www.w3.org/2000/svg">
<g id="chat-small-bordered.7e495b90.svg">
<g id="Group" opacity="0.8">
<path id="Vector" d="M6.88298 15.8671C6.87106 15.4616 6.53893 15.1391 6.13331 15.1391H4.44442C3.01419 15.1391 1.86108 13.986 1.86108 12.5558V5.44466C1.86108 4.01443 3.01419 2.86133 4.44442 2.86133H15.5555C16.9825 2.86133 18.1389 4.0334 18.1389 5.44466V12.5558C18.1389 13.986 16.9858 15.1391 15.5555 15.1391H12.4444C12.2795 15.1391 12.1191 15.1935 11.9882 15.2938L7.23266 18.9383C7.21977 18.9481 7.2072 18.9584 7.19498 18.9691C7.17955 18.9826 7.15372 18.9992 7.11996 19.0119C7.08584 19.0247 7.05819 19.028 7.04442 19.028C7.01946 19.028 7.00507 19.0259 6.99739 19.0243C6.99432 19.0237 6.99163 19.023 6.98907 19.0221C6.98462 19.0191 6.9819 19.0166 6.98039 19.0151C6.97793 19.0127 6.97684 19.011 6.97611 19.0097C6.97549 19.0086 6.96826 18.9953 6.97053 18.9612C6.97213 18.9373 6.97258 18.9133 6.97187 18.8893L6.88298 15.8671Z" stroke="#121212" stroke-width="1.5" stroke-linejoin="round"/>
<path id="Vector_2" d="M6.25 10.4502C6.94036 10.4502 7.5 9.89055 7.5 9.2002C7.5 8.50984 6.94036 7.9502 6.25 7.9502C5.55964 7.9502 5 8.50984 5 9.2002C5 9.89055 5.55964 10.4502 6.25 10.4502Z" fill="#121212"/>
<path id="Vector_3" d="M10.25 10.4502C10.9404 10.4502 11.5 9.89055 11.5 9.2002C11.5 8.50984 10.9404 7.9502 10.25 7.9502C9.55964 7.9502 9 8.50984 9 9.2002C9 9.89055 9.55964 10.4502 10.25 10.4502Z" fill="#121212"/>
<path id="Vector_4" d="M14.25 10.4502C14.9404 10.4502 15.5 9.89055 15.5 9.2002C15.5 8.50984 14.9404 7.9502 14.25 7.9502C13.5596 7.9502 13 8.50984 13 9.2002C13 9.89055 13.5596 10.4502 14.25 10.4502Z" fill="#121212"/>
</g>
</g>
</svg>
