<svg width="19" height="18" viewBox="0 0 19 18" fill="none" xmlns="http://www.w3.org/2000/svg">
<g id="chat-small.01397ec0.svg" clip-path="url(#clip0_16_235)">
<path id="Vector" d="M15.2151 0.0561523H3.96509C2.09759 0.0561523 0.590088 1.56365 0.590088 3.43116V10.6312C0.590088 12.4987 2.09759 14.0062 3.96509 14.0062H5.67509L5.76509 17.0662C5.74259 17.4037 5.90009 17.6962 6.19259 17.8537C6.32759 17.9212 6.46259 17.9437 6.59759 17.9437C6.82259 17.9437 7.07009 17.8537 7.25009 17.6962L12.0651 14.0062H15.2151C17.0826 14.0062 18.5901 12.4987 18.5901 10.6312V3.43116C18.5901 1.58615 17.0826 0.0561523 15.2151 0.0561523ZM5.31509 8.78616C4.43759 8.78616 3.74009 8.08866 3.74009 7.21116C3.74009 6.33366 4.43759 5.63616 5.31509 5.63616C6.19259 5.63616 6.89009 6.33366 6.89009 7.21116C6.89009 8.08866 6.19259 8.78616 5.31509 8.78616ZM9.59009 8.78616C8.71259 8.78616 8.01509 8.08866 8.01509 7.21116C8.01509 6.33366 8.71259 5.63616 9.59009 5.63616C10.4676 5.63616 11.1651 6.33366 11.1651 7.21116C11.1651 8.08866 10.4676 8.78616 9.59009 8.78616ZM13.8651 8.78616C12.9876 8.78616 12.2901 8.08866 12.2901 7.21116C12.2901 6.33366 12.9876 5.63616 13.8651 5.63616C14.7426 5.63616 15.4401 6.33366 15.4401 7.21116C15.4401 8.08866 14.7426 8.78616 13.8651 8.78616Z" fill="#FF7250"/>
</g>
<defs>
<clipPath id="clip0_16_235">
<rect width="18" height="18" fill="white" transform="translate(0.590088)"/>
</clipPath>
</defs>
</svg>
