<svg width="58" height="58" viewBox="0 0 58 58" fill="none" xmlns="http://www.w3.org/2000/svg">
<g id="Frame" opacity="0.4">
<path id="Vector" d="M45.9167 7.25H12.0833C9.41396 7.25 7.25 9.41396 7.25 12.0833V45.9167C7.25 48.586 9.41396 50.75 12.0833 50.75H45.9167C48.586 50.75 50.75 48.586 50.75 45.9167V12.0833C50.75 9.41396 48.586 7.25 45.9167 7.25Z" stroke="#707070" stroke-width="3" stroke-linecap="round" stroke-linejoin="round"/>
<path id="Vector_2" d="M21.7501 26.5833C24.4195 26.5833 26.5834 24.4193 26.5834 21.75C26.5834 19.0806 24.4195 16.9166 21.7501 16.9166C19.0807 16.9166 16.9167 19.0806 16.9167 21.75C16.9167 24.4193 19.0807 26.5833 21.7501 26.5833Z" stroke="#707070" stroke-width="3" stroke-linecap="round" stroke-linejoin="round"/>
<path id="Vector_3" d="M50.75 36.25L43.2922 28.7922C42.3858 27.8861 41.1566 27.3771 39.875 27.3771C38.5934 27.3771 37.3642 27.8861 36.4578 28.7922L14.5 50.75" stroke="#707070" stroke-width="3" stroke-linecap="round" stroke-linejoin="round"/>
</g>
</svg>
