<svg width="100" height="36" viewBox="0 0 100 36" fill="none" xmlns="http://www.w3.org/2000/svg">
<g id="logo-bip.svg" clip-path="url(#clip0_16_18)">
<path id="Vector" d="M22 3.764C22 3.316 22.0853 2.9 22.256 2.516C22.4267 2.11067 22.6613 1.75867 22.96 1.46C23.2587 1.16133 23.6 0.926666 23.984 0.756001C24.3893 0.585333 24.816 0.5 25.264 0.5C25.712 0.5 26.128 0.585333 26.512 0.756001C26.9173 0.926666 27.2693 1.16133 27.568 1.46C27.8667 1.75867 28.1013 2.11067 28.272 2.516C28.4427 2.9 28.528 3.316 28.528 3.764C28.528 4.212 28.4427 4.63867 28.272 5.044C28.1013 5.428 27.8667 5.76933 27.568 6.068C27.2693 6.36667 26.9173 6.60133 26.512 6.772C26.128 6.94267 25.712 7.028 25.264 7.028C24.816 7.028 24.3893 6.94267 23.984 6.772C23.6 6.60133 23.2587 6.36667 22.96 6.068C22.6613 5.76933 22.4267 5.428 22.256 5.044C22.0853 4.63867 22 4.212 22 3.764Z" fill="#FF7250"/>
<path id="Vector_2" d="M67 10.852H72.792V13.54C73.4107 12.5587 74.168 11.812 75.064 11.3C75.96 10.7667 77.0053 10.5 78.2 10.5C78.3493 10.5 78.5093 10.5 78.68 10.5C78.872 10.5 79.0853 10.5213 79.32 10.564V16.1C78.552 15.716 77.72 15.524 76.824 15.524C75.48 15.524 74.4667 15.9293 73.784 16.74C73.1227 17.5293 72.792 18.692 72.792 20.228V27.268H67V10.852Z" fill="black"/>
<path id="Vector_3" d="M87.6984 10.852V20.1C87.6984 22.1267 88.6797 23.14 90.6424 23.14C92.605 23.14 93.5864 22.1267 93.5864 20.1V10.852H99.3784V21.22C99.3784 23.4387 98.6424 25.1027 97.1704 26.212C95.7197 27.3213 93.5437 27.876 90.6424 27.876C87.741 27.876 85.5544 27.3213 84.0824 26.212C82.6317 25.1027 81.9062 23.4387 81.9062 21.22V10.852H87.6984Z" fill="black"/>
<path id="Vector_4" d="M13.088 18.9C13.088 18.388 12.992 17.908 12.8 17.46C12.608 16.9907 12.3413 16.5853 12 16.244C11.6587 15.9027 11.264 15.636 10.816 15.444C10.368 15.2307 9.87733 15.124 9.344 15.124C8.832 15.124 8.352 15.22 7.904 15.412C7.456 15.604 7.06133 15.8707 6.72 16.212C6.4 16.5533 6.13333 16.9587 5.92 17.428C5.728 17.876 5.632 18.356 5.632 18.868C5.632 19.38 5.728 19.86 5.92 20.308C6.112 20.756 6.37867 21.1507 6.72 21.492C7.06133 21.812 7.456 22.0787 7.904 22.292C8.37333 22.484 8.864 22.58 9.376 22.58C9.888 22.58 10.368 22.484 10.816 22.292C11.264 22.1 11.648 21.8333 11.968 21.492C12.3093 21.1507 12.576 20.756 12.768 20.308C12.9813 19.86 13.088 19.3907 13.088 18.9ZM5.792 0.5V12.276C7.15733 10.8467 8.864 10.132 10.912 10.132C12.128 10.132 13.2373 10.3667 14.24 10.836C15.264 11.284 16.128 11.9027 16.832 12.692C17.5573 13.46 18.1227 14.3773 18.528 15.444C18.9333 16.4893 19.136 17.6093 19.136 18.804C19.136 20.02 18.9227 21.1613 18.496 22.228C18.0907 23.2947 17.5147 24.2227 16.768 25.012C16.0213 25.8013 15.136 26.4307 14.112 26.9C13.1093 27.348 12.0213 27.572 10.848 27.572C8.71467 27.572 7.02933 26.7933 5.792 25.236V27.06H0V0.5H5.792Z" fill="black"/>
<path id="Vector_5" d="M28.2295 10.644V27.06H22.4375V10.644H28.2295Z" fill="black"/>
<path id="Vector_6" d="M45.2755 18.9C45.2755 18.388 45.1795 17.908 44.9875 17.46C44.8168 16.9907 44.5608 16.5853 44.2195 16.244C43.8782 15.9027 43.4728 15.636 43.0035 15.444C42.5555 15.2307 42.0648 15.124 41.5315 15.124C41.0195 15.124 40.5395 15.22 40.0915 15.412C39.6435 15.604 39.2488 15.8707 38.9075 16.212C38.5875 16.5533 38.3208 16.9587 38.1075 17.428C37.9155 17.876 37.8195 18.356 37.8195 18.868C37.8195 19.38 37.9155 19.86 38.1075 20.308C38.2995 20.756 38.5662 21.1507 38.9075 21.492C39.2488 21.812 39.6435 22.0787 40.0915 22.292C40.5608 22.484 41.0515 22.58 41.5635 22.58C42.0755 22.58 42.5555 22.484 43.0035 22.292C43.4515 22.1 43.8355 21.8333 44.1555 21.492C44.4968 21.1507 44.7635 20.756 44.9555 20.308C45.1688 19.86 45.2755 19.3907 45.2755 18.9ZM37.9795 35.252H32.1875V10.644H37.9795V12.468C39.2168 10.9107 40.9022 10.132 43.0355 10.132C44.2088 10.132 45.2968 10.3667 46.2995 10.836C47.3235 11.284 48.2088 11.9027 48.9555 12.692C49.7022 13.4813 50.2782 14.4093 50.6835 15.476C51.1102 16.5427 51.3235 17.684 51.3235 18.9C51.3235 20.116 51.1102 21.2467 50.6835 22.292C50.2782 23.3373 49.7022 24.2547 48.9555 25.044C48.2302 25.8333 47.3662 26.452 46.3635 26.9C45.3608 27.348 44.2728 27.572 43.0995 27.572C41.0515 27.572 39.3448 26.868 37.9795 25.46V35.252Z" fill="black"/>
<path id="Vector_7" d="M55 24.764C55 24.316 55.0853 23.9 55.256 23.516C55.4267 23.1107 55.6613 22.7587 55.96 22.46C56.2587 22.1613 56.6 21.9267 56.984 21.756C57.3893 21.5853 57.816 21.5 58.264 21.5C58.712 21.5 59.128 21.5853 59.512 21.756C59.9173 21.9267 60.2693 22.1613 60.568 22.46C60.8667 22.7587 61.1013 23.1107 61.272 23.516C61.4427 23.9 61.528 24.316 61.528 24.764C61.528 25.212 61.4427 25.6387 61.272 26.044C61.1013 26.428 60.8667 26.7693 60.568 27.068C60.2693 27.3667 59.9173 27.6013 59.512 27.772C59.128 27.9427 58.712 28.028 58.264 28.028C57.816 28.028 57.3893 27.9427 56.984 27.772C56.6 27.6013 56.2587 27.3667 55.96 27.068C55.6613 26.7693 55.4267 26.428 55.256 26.044C55.0853 25.6387 55 25.212 55 24.764Z" fill="#2D2C29"/>
</g>
<defs>
<clipPath id="clip0_16_18">
<rect width="100" height="35" fill="white" transform="translate(0 0.5)"/>
</clipPath>
</defs>
</svg>
