<svg width="142" height="48" viewBox="0 0 142 48" fill="none" xmlns="http://www.w3.org/2000/svg">
<g clip-path="url(#clip0_16_210)">
<mask id="mask0_16_210" style="mask-type:luminance" maskUnits="userSpaceOnUse" x="0" y="0" width="142" height="48">
<path d="M141.073 0.167725H0V47.8321H141.073V0.167725Z" fill="white"/>
</mask>
<g mask="url(#mask0_16_210)">
<path d="M31.0217 4.77019C31.0217 4.13848 31.1421 3.55189 31.3828 3.01043C31.6234 2.43888 31.9543 1.94254 32.3754 1.52139C32.7965 1.10025 33.2778 0.769354 33.8193 0.528704C34.3909 0.288051 34.9926 0.167725 35.6242 0.167725C36.256 0.167725 36.8425 0.288051 37.384 0.528704C37.9555 0.769354 38.4519 1.10025 38.873 1.52139C39.2942 1.94254 39.625 2.43888 39.8657 3.01043C40.1064 3.55189 40.2267 4.13848 40.2267 4.77019C40.2267 5.4019 40.1064 6.00354 39.8657 6.57508C39.625 7.11655 39.2942 7.59785 38.873 8.01899C38.4519 8.44014 37.9555 8.77103 37.384 9.01168C36.8425 9.25234 36.256 9.37266 35.6242 9.37266C34.9926 9.37266 34.3909 9.25234 33.8193 9.01168C33.2778 8.77103 32.7965 8.44014 32.3754 8.01899C31.9543 7.59785 31.6234 7.11655 31.3828 6.57508C31.1421 6.00354 31.0217 5.4019 31.0217 4.77019Z" fill="#FF7250"/>
<path d="M94.4749 14.7647H102.642V18.5549C103.514 17.1712 104.583 16.1184 105.846 15.3964C107.109 14.6444 108.583 14.2683 110.268 14.2683C110.478 14.2683 110.703 14.2683 110.945 14.2683C111.215 14.2683 111.516 14.2984 111.847 14.3586V22.1647C110.764 21.6232 109.591 21.3525 108.327 21.3525C106.433 21.3525 105.004 21.9241 104.04 23.0671C103.108 24.1802 102.642 25.8197 102.642 27.9855V37.9124H94.4749V14.7647Z" fill="white"/>
<path d="M123.661 14.7649V27.8052C123.661 30.6629 125.044 32.0918 127.812 32.0918C130.579 32.0918 131.964 30.6629 131.964 27.8052V14.7649H140.13V29.3844C140.13 32.5129 139.092 34.8593 137.017 36.4236C134.971 37.9878 131.903 38.7698 127.812 38.7698C123.721 38.7698 120.637 37.9878 118.562 36.4236C116.516 34.8593 115.494 32.5129 115.494 29.3844V14.7649H123.661Z" fill="white"/>
<path d="M18.455 26.113C18.455 25.3911 18.3196 24.7143 18.0489 24.0825C17.7782 23.4207 17.4022 22.8492 16.9208 22.3679C16.4395 21.8866 15.883 21.5105 15.2513 21.2398C14.6196 20.9389 13.9277 20.7886 13.1757 20.7886C12.4537 20.7886 11.7769 20.924 11.1452 21.1946C10.5135 21.4654 9.95698 21.8414 9.47567 22.3227C9.02445 22.804 8.64843 23.3756 8.34761 24.0374C8.07688 24.6691 7.94151 25.3459 7.94151 26.0679C7.94151 26.7898 8.07688 27.4667 8.34761 28.0984C8.61835 28.7301 8.99437 29.2866 9.47567 29.7679C9.95698 30.2191 10.5135 30.5951 11.1452 30.8959C11.807 31.1667 12.4989 31.3021 13.2208 31.3021C13.9428 31.3021 14.6196 31.1667 15.2513 30.8959C15.883 30.6252 16.4245 30.2492 16.8758 29.7679C17.3571 29.2866 17.733 28.7301 18.0038 28.0984C18.3046 27.4667 18.455 26.8049 18.455 26.113ZM8.16712 0.167725V16.7727C10.0923 14.7573 12.4989 13.7495 15.3866 13.7495C17.1014 13.7495 18.6656 14.0804 20.0794 14.7422C21.5233 15.3739 22.7416 16.2463 23.7343 17.3593C24.7571 18.4422 25.5542 19.7357 26.1258 21.2398C26.6973 22.7139 26.9831 24.2931 26.9831 25.9777C26.9831 27.6923 26.6823 29.3017 26.0806 30.8058C25.5092 32.3098 24.6969 33.6184 23.6441 34.7313C22.5912 35.8444 21.3428 36.7318 19.8989 37.3936C18.4851 38.0253 16.9509 38.3411 15.2965 38.3411C12.2883 38.3411 9.91186 37.2431 8.16712 35.0472V37.6192H0V0.167725H8.16712Z" fill="white"/>
<path d="M39.8055 14.4714V37.6191H31.6384V14.4714H39.8055Z" fill="white"/>
<path d="M63.8417 26.113C63.8417 25.3911 63.7063 24.7143 63.4356 24.0825C63.1949 23.4207 62.834 22.8492 62.3526 22.3679C61.8713 21.8866 61.2998 21.5106 60.638 21.2399C60.0063 20.939 59.3144 20.7886 58.5623 20.7886C57.8404 20.7886 57.1636 20.924 56.5318 21.1947C55.9002 21.4655 55.3437 21.8414 54.8624 22.3227C54.4112 22.804 54.0351 23.3756 53.7343 24.0375C53.4635 24.6691 53.3282 25.3459 53.3282 26.068C53.3282 26.7899 53.4635 27.4667 53.7343 28.0985C54.005 28.7301 54.3811 29.2866 54.8624 29.7679C55.3437 30.2191 55.9002 30.5952 56.5318 30.896C57.1937 31.1668 57.8855 31.3021 58.6075 31.3021C59.3294 31.3021 60.0063 31.1668 60.638 30.896C61.2697 30.6253 61.8112 30.2492 62.2624 29.7679C62.7437 29.2866 63.1197 28.7301 63.3904 28.0985C63.6912 27.4667 63.8417 26.805 63.8417 26.113ZM53.5538 49.1705H45.3867V14.4715H53.5538V17.0435C55.2985 14.8475 57.675 13.7495 60.6831 13.7495C62.3376 13.7495 63.8717 14.0805 65.2856 14.7422C66.7295 15.374 67.9779 16.2463 69.0307 17.3593C70.0836 18.4724 70.8958 19.7809 71.4674 21.2849C72.0689 22.7891 72.3698 24.3984 72.3698 26.113C72.3698 27.8277 72.0689 29.422 71.4674 30.896C70.8958 32.37 70.0836 33.6635 69.0307 34.7765C68.0079 35.8895 66.7897 36.7619 65.3758 37.3936C63.962 38.0254 62.4278 38.3411 60.7734 38.3411C57.8855 38.3411 55.479 37.3485 53.5538 35.3631V49.1705Z" fill="white"/>
<path d="M77.554 34.3818C77.554 33.75 77.6743 33.1635 77.9149 32.622C78.1556 32.0505 78.4865 31.5541 78.9076 31.133C79.3288 30.7118 79.8101 30.381 80.3516 30.1403C80.9231 29.8996 81.5247 29.7793 82.1564 29.7793C82.7881 29.7793 83.3748 29.8996 83.9162 30.1403C84.4877 30.381 84.9841 30.7118 85.4053 31.133C85.8264 31.5541 86.1573 32.0505 86.3979 32.622C86.6386 33.1635 86.7589 33.75 86.7589 34.3818C86.7589 35.0134 86.6386 35.6151 86.3979 36.1867C86.1573 36.7282 85.8264 37.2095 85.4053 37.6306C84.9841 38.0517 84.4877 38.3826 83.9162 38.6232C83.3748 38.8639 82.7881 38.9843 82.1564 38.9843C81.5247 38.9843 80.9231 38.8639 80.3516 38.6232C79.8101 38.3826 79.3288 38.0517 78.9076 37.6306C78.4865 37.2095 78.1556 36.7282 77.9149 36.1867C77.6743 35.6151 77.554 35.0134 77.554 34.3818Z" fill="#DCE1E7"/>
</g>
</g>
<defs>
<clipPath id="clip0_16_210">
<rect width="142" height="47.6643" fill="white" transform="translate(0 0.167725)"/>
</clipPath>
</defs>
</svg>
