<svg width="19" height="18" viewBox="0 0 19 18" fill="none" xmlns="http://www.w3.org/2000/svg">
<g id="phone-small.d6388f76.svg">
<path id="Vector" d="M16.3644 12.5898L14.1864 11.068C13.9016 10.8694 13.5687 10.7647 13.2235 10.7647C12.6745 10.7647 12.1592 11.0339 11.8454 11.4844L11.3398 12.2089C10.4924 11.6406 9.54686 10.8471 8.64547 9.94587C7.74425 9.04465 6.95088 8.09911 6.38273 7.25173L7.10699 6.74613C7.47618 6.48906 7.72274 6.10394 7.80105 5.66203C7.87919 5.22045 7.78069 4.77427 7.52329 4.40492L6.00189 2.22689C5.68375 1.77184 5.17043 1.5 4.62855 1.5C4.44076 1.5 4.25657 1.53316 4.08125 1.59784C3.88213 1.67138 3.69663 1.76167 3.51475 1.87592L3.21401 2.08768C3.13883 2.14612 3.0689 2.21014 3.00192 2.27712C2.63503 2.64385 2.37468 3.10808 2.22776 3.65702C1.60084 6.00709 3.15393 9.56076 6.09234 12.4992C8.55995 14.9668 11.5244 16.4997 13.8287 16.5C14.2233 16.5 14.5955 16.454 14.9346 16.3634C15.4836 16.2167 15.9478 15.9563 16.3149 15.5893C16.3815 15.5226 16.4452 15.4527 16.5135 15.3644L16.7254 15.062C16.829 14.8965 16.9191 14.711 16.9937 14.5104C17.2499 13.8177 16.9912 13.0278 16.3644 12.5898Z" fill="#FF7250"/>
</g>
</svg>
