<svg width="164" height="32" viewBox="0 0 164 32" fill="none" xmlns="http://www.w3.org/2000/svg">
<rect x="75.5" y="31.5" width="75" height="31" rx="15.5" transform="rotate(-180 75.5 31.5)" fill="white"/>
<rect x="75.5" y="31.5" width="75" height="31" rx="15.5" transform="rotate(-180 75.5 31.5)" stroke="#EFEFEF"/>
<path d="M19.2929 15.2929C18.9024 15.6834 18.9024 16.3166 19.2929 16.7071L25.6569 23.0711C26.0474 23.4616 26.6805 23.4616 27.0711 23.0711C27.4616 22.6805 27.4616 22.0474 27.0711 21.6569L21.4142 16L27.0711 10.3431C27.4616 9.95262 27.4616 9.31946 27.0711 8.92893C26.6805 8.53841 26.0474 8.53841 25.6569 8.92893L19.2929 15.2929ZM56 15L20 15V17L56 17V15Z" fill="#8D8D8D"/>
<rect x="88.5" y="0.5" width="75" height="31" rx="15.5" fill="white"/>
<rect x="88.5" y="0.5" width="75" height="31" rx="15.5" stroke="#EFEFEF"/>
<path d="M144.707 16.7071C145.098 16.3166 145.098 15.6834 144.707 15.2929L138.343 8.92893C137.953 8.53841 137.319 8.53841 136.929 8.92893C136.538 9.31946 136.538 9.95262 136.929 10.3431L142.586 16L136.929 21.6569C136.538 22.0474 136.538 22.6805 136.929 23.0711C137.319 23.4616 137.953 23.4616 138.343 23.0711L144.707 16.7071ZM108 17H144V15H108V17Z" fill="#8D8D8D"/>
</svg>
