<svg width="602" height="395" viewBox="0 0 602 395" fill="none" xmlns="http://www.w3.org/2000/svg">
<rect x="0.5" y="0.5" width="601" height="394" rx="12.5" fill="white"/>
<rect x="0.5" y="0.5" width="601" height="394" rx="12.5" stroke="#F3F3F3"/>
<path d="M294.228 234H271.556C269.286 234 267.11 233.099 265.506 231.494C263.901 229.89 263 227.714 263 225.444V165.556C263 163.286 263.901 161.11 265.506 159.506C267.11 157.901 269.286 157 271.556 157H331.444C333.714 157 335.89 157.901 337.494 159.506C339.099 161.11 340 163.286 340 165.556V208.333L326.739 195.072C325.129 193.494 322.962 192.616 320.708 192.627C318.454 192.638 316.295 193.538 314.701 195.132L275.833 234M310 225.455L322 238M322 238V215M322 238L336 226M297 183C297 187.418 293.418 191 289 191C284.582 191 281 187.418 281 183C281 178.582 284.582 175 289 175C293.418 175 297 178.582 297 183Z" stroke="#E0E0E0" stroke-width="5" stroke-linecap="round" stroke-linejoin="round"/>
</svg>
